<svg id="e35G9JocnAk1" xmlns="http://www.w3.org/2000/svg" xmlns:xlink="http://www.w3.org/1999/xlink" viewBox="0 0 1280 720" shape-rendering="geometricPrecision" text-rendering="geometricPrecision" project-id="4c38ceb2f5e34c0c988cbf7416f322ce" export-id="74e6053c3d264d4baebf54b5305c3fe9" cached="false"><g><rect width="327" height="130" rx="0" ry="0" transform="matrix(-1 0 0 1 589 450)" fill="#dceaf7" stroke="#042433" stroke-width="2" stroke-miterlimit="8"/><rect width="327" height="18" rx="0" ry="0" transform="translate(262 562)" fill="#80350e"/><path d="M262.5,394c0-12.426,73.202-22.5,163.5-22.5c90.299,0,163.5,10.074,163.5,22.5s-73.201,22.5-163.5,22.5c-90.298,0-163.5-10.074-163.5-22.5Z" fill-opacity="0.05098" fill-rule="evenodd" stroke="#000" stroke-width="1.32283" stroke-miterlimit="8"/><path d="M0,0l.00252,186.281" transform="matrix(-1 0 0 1 589.003 394)" fill="none" fill-rule="evenodd" stroke="#000" stroke-width="2" stroke-miterlimit="8"/><rect width="327" height="28" rx="0" ry="0" transform="translate(262 580)" fill="#fff"/><path d="M0,37L163.5,0L327,37L0,37Z" transform="matrix(1 0 0-1 262 617)" fill="#80350e" fill-rule="evenodd"/><path d="M262.5,562.5c0-7.732,73.202-14,163.5-14c90.299,0,163.5,6.268,163.5,14s-73.201,14-163.5,14c-90.298,0-163.5-6.268-163.5-14Z" fill="#80350e" fill-rule="evenodd" stroke="#000" stroke-width="1.32283" stroke-miterlimit="8"/><path d="M262,580l163.2,37.411" fill="none" fill-rule="evenodd" stroke="#000" stroke-width="2" stroke-miterlimit="8"/><path d="M0,0L163.2,37.4105" transform="matrix(1 0 0-1 426 617.411)" fill="none" fill-rule="evenodd" stroke="#000" stroke-width="2" stroke-miterlimit="8"/><path d="M262,394v186.281" fill="none" fill-rule="evenodd" stroke="#000" stroke-width="2" stroke-miterlimit="8"/><path d="M262.5,450c0-12.426,73.202-22.5,163.5-22.5c90.299,0,163.5,10.074,163.5,22.5s-73.201,22.5-163.5,22.5c-90.298,0-163.5-10.074-163.5-22.5Z" fill="#83cbeb" fill-rule="evenodd" stroke="#000" stroke-width="1.32283" stroke-miterlimit="8"/></g></svg>
