<svg id="eNnA7TY5jgU1" xmlns="http://www.w3.org/2000/svg" xmlns:xlink="http://www.w3.org/1999/xlink" viewBox="0 0 1280 720" shape-rendering="geometricPrecision" text-rendering="geometricPrecision" project-id="613dab9783f14755b26400f003ac9814" export-id="6b4c768fb4fe4db785655d6f5537c214" cached="false"><g><rect width="212" height="213" rx="0" ry="0" transform="matrix(-1 0 0 1 589 349)" fill="#800000" stroke="#042433" stroke-width="2" stroke-miterlimit="8"/><rect width="212" height="18" rx="0" ry="0" transform="translate(377 562)" fill="#400000"/><path d="M377.5,335c0-12.426,47.458-22.5,106-22.5s106,10.074,106,22.5-47.458,22.5-106,22.5-106-10.074-106-22.5Z" fill-opacity="0.05098" fill-rule="evenodd" stroke="#000" stroke-width="1.32283" stroke-miterlimit="8"/><path d="M0,0l.00105,245.163" transform="matrix(-1 0 0 1 589.001 335)" fill="none" fill-rule="evenodd" stroke="#000" stroke-width="2" stroke-miterlimit="8"/><rect width="212" height="28" rx="0" ry="0" transform="translate(377 580)" fill="#fff"/><path d="M0,37L106,0L212,37L0,37Z" transform="matrix(1 0 0-1 377 617)" fill="#400000" fill-rule="evenodd"/><path d="M377.5,562.5c0-7.732,47.458-14,106-14s106,6.268,106,14-47.458,14-106,14-106-6.268-106-14Z" fill="#400000" fill-rule="evenodd" stroke="#000" stroke-width="1.32283" stroke-miterlimit="8"/><path d="M377,580l106,37.411" fill="none" fill-rule="evenodd" stroke="#000" stroke-width="2" stroke-miterlimit="8"/><path d="M0,0L106,37.4105" transform="matrix(1 0 0-1 483 617.411)" fill="none" fill-rule="evenodd" stroke="#000" stroke-width="2" stroke-miterlimit="8"/><path d="M0,0l.00105,245.163" transform="matrix(-1 0 0 1 377.001 335)" fill="none" fill-rule="evenodd" stroke="#000" stroke-width="2" stroke-miterlimit="8"/><path d="M377.5,348c0-12.426,47.458-22.5,106-22.5s106,10.074,106,22.5-47.458,22.5-106,22.5-106-10.074-106-22.5Z" fill="#730000" fill-rule="evenodd" stroke="#000" stroke-width="1.32283" stroke-miterlimit="8"/></g></svg>
