<svg id="eWBMpIYRNmD1" xmlns="http://www.w3.org/2000/svg" xmlns:xlink="http://www.w3.org/1999/xlink" viewBox="0 0 1280 720" shape-rendering="geometricPrecision" text-rendering="geometricPrecision" project-id="4513ed573ff546a6a3261df2aeae46ec" export-id="230b6468965545f691fcc79d7b64867f" cached="false"><g><path d="M262,452.5c0-38.936,73.201-70.5,163.5-70.5s163.5,31.564,163.5,70.5-73.201,70.5-163.5,70.5-163.5-31.564-163.5-70.5Z" fill="#747474" fill-rule="evenodd" stroke="#042433" stroke-width="2" stroke-miterlimit="8"/><path d="M262.5,581c0-12.426,73.202-22.5,163.5-22.5c90.299,0,163.5,10.074,163.5,22.5s-73.201,22.5-163.5,22.5c-90.298,0-163.5-10.074-163.5-22.5Z" fill="#aeaeae" fill-rule="evenodd" stroke="#000" stroke-width="1.32283" stroke-miterlimit="8"/><path d="M589,453v127.034" fill="none" fill-rule="evenodd" stroke="#156082" stroke-width="2" stroke-miterlimit="8"/><path d="M262,453v127.034" fill="none" fill-rule="evenodd" stroke="#156082" stroke-width="2" stroke-miterlimit="8"/><rect width="327" height="127" rx="0" ry="0" transform="matrix(-1 0 0 1 589 453)" fill="#aeaeae"/><path d="M262.5,454c0-12.426,73.202-22.5,163.5-22.5c90.299,0,163.5,10.074,163.5,22.5s-73.201,22.5-163.5,22.5c-90.298,0-163.5-10.074-163.5-22.5Z" fill="#747474" fill-rule="evenodd" stroke="#000" stroke-width="1.32283" stroke-miterlimit="8"/><path d="M262,446.5c0-10.77,73.201-19.5,163.5-19.5s163.5,8.73,163.5,19.5-73.201,19.5-163.5,19.5-163.5-8.73-163.5-19.5Z" fill="#747474" fill-rule="evenodd"/><path d="M293,466c0-41.5,62.5-83,125-83" fill="none" fill-rule="evenodd" stroke="#a6a6a6" stroke-width="4" stroke-miterlimit="8"/><path d="M356,476c0-46.5,31-93,62-93" fill="none" fill-rule="evenodd" stroke="#a6a6a6" stroke-width="4" stroke-miterlimit="8"/><path d="M0,0C46.5,0,93,39.5,93,79" transform="matrix(0-1-1 0 497 476)" fill="none" fill-rule="evenodd" stroke="#a6a6a6" stroke-width="4" stroke-miterlimit="8"/><path d="M0,0C41,0,82,62.5,82,125" transform="matrix(0-1-1 0 551 465)" fill="none" fill-rule="evenodd" stroke="#a6a6a6" stroke-width="4" stroke-miterlimit="8"/><path d="M418,476c0-46.5,4-93,8-93" fill="none" fill-rule="evenodd" stroke="#a6a6a6" stroke-width="4" stroke-miterlimit="8"/><path d="M312.5,403.5h224" fill="#3cf" fill-opacity="0.05098" fill-rule="evenodd" stroke="#7f7f7f" stroke-width="1.33333" stroke-miterlimit="8"/><path d="M281,425h294" fill="#3cf" fill-opacity="0.05098" fill-rule="evenodd" stroke="#7f7f7f" stroke-width="2" stroke-miterlimit="8"/></g></svg>
