<?xml version="1.0"?>
<svg width="1280" height="720" xmlns="http://www.w3.org/2000/svg" xmlns:svg="http://www.w3.org/2000/svg">

 <g class="layer">
  <title>Layer 1</title>
  <g id="svg_16" transform="translate(-93, 17) translate(262, 603.5) matrix(2.92977, 0, 0, 2.85465, -767.6, -1722.78)">
   <path d="m262.5,581c0,-12.43 73.2,-22.5 163.5,-22.5c90.3,0 163.5,10.07 163.5,22.5c0,12.43 -73.2,22.5 -163.5,22.5c-90.3,0 -163.5,-10.07 -163.5,-22.5z" fill="#AEAEAE" fill-rule="evenodd" id="svg_3" stroke="#000000" stroke-miterlimit="8" stroke-width="1.32"/>
   <path d="m589,453l0,127.03" fill="none" fill-rule="evenodd" id="svg_4" stroke="#156082" stroke-miterlimit="8" stroke-width="2"/>
   <path d="m262,453l0,127.03" fill="none" fill-rule="evenodd" id="svg_5" stroke="#156082" stroke-miterlimit="8" stroke-width="2"/>
   <rect fill="#AEAEAE" height="127" id="svg_6" transform="matrix(-1, 0, 0, 1, 589, 453)" width="327" x="0" y="0"/>
   <path d="m262.5,454c0,-12.43 73.2,-22.5 163.5,-22.5c90.3,0 163.5,10.07 163.5,22.5c0,12.43 -73.2,22.5 -163.5,22.5c-90.3,0 -163.5,-10.07 -163.5,-22.5z" fill="#747474" fill-rule="evenodd" id="svg_7" stroke="#000000" stroke-miterlimit="8" stroke-width="1.32"/>
   <path d="m382,476.67c0,-0.37 0.3,-0.67 0.67,-0.67l2.66,0c0.37,0 0.67,0.3 0.67,0.67l0,125.66c0,0.37 -0.3,0.67 -0.67,0.67l-2.66,0c-0.37,0 -0.67,-0.3 -0.67,-0.67l0,-125.66z" fill-rule="evenodd" id="svg_8" stroke="#042433" stroke-miterlimit="8" stroke-width="2"/>
   <path d="m473,476.83c0,-0.46 0.37,-0.83 0.83,-0.83l3.34,0c0.46,0 0.83,0.37 0.83,0.83l0,125.34c0,0.46 -0.37,0.83 -0.83,0.83l-3.34,0c-0.46,0 -0.83,-0.37 -0.83,-0.83l0,-125.34z" fill-rule="evenodd" id="svg_9" stroke="#042433" stroke-miterlimit="8" stroke-width="2"/>
   <path d="m474.17,588c0.46,0 0.83,-0.37 0.83,-0.83l0,-3.34c0,-0.46 -0.37,-0.83 -0.83,-0.83l-89.34,0c-0.46,0 -0.83,0.37 -0.83,0.83l0,3.34c0,0.46 0.37,0.83 0.83,0.83l89.34,0z" fill-rule="evenodd" id="svg_10" stroke="#042433" stroke-miterlimit="8" stroke-width="2"/>
   <path d="m474.17,568c0.46,0 0.83,-0.37 0.83,-0.83l0,-3.34c0,-0.46 -0.37,-0.83 -0.83,-0.83l-89.34,0c-0.46,0 -0.83,0.37 -0.83,0.83l0,3.34c0,0.46 0.37,0.83 0.83,0.83l89.34,0z" fill-rule="evenodd" id="svg_11" stroke="#042433" stroke-miterlimit="8" stroke-width="2"/>
   <path d="m474.17,548c0.46,0 0.83,-0.37 0.83,-0.83l0,-3.34c0,-0.46 -0.37,-0.83 -0.83,-0.83l-89.34,0c-0.46,0 -0.83,0.37 -0.83,0.83l0,3.34c0,0.46 0.37,0.83 0.83,0.83l89.34,0z" fill-rule="evenodd" id="svg_12" stroke="#042433" stroke-miterlimit="8" stroke-width="2"/>
   <path d="m474.17,528c0.46,0 0.83,-0.37 0.83,-0.83l0,-3.34c0,-0.46 -0.37,-0.83 -0.83,-0.83l-89.34,0c-0.46,0 -0.83,0.37 -0.83,0.83l0,3.34c0,0.46 0.37,0.83 0.83,0.83l89.34,0z" fill-rule="evenodd" id="svg_13" stroke="#042433" stroke-miterlimit="8" stroke-width="2"/>
   <path d="m474.17,508c0.46,0 0.83,-0.37 0.83,-0.83l0,-3.34c0,-0.46 -0.37,-0.83 -0.83,-0.83l-89.34,0c-0.46,0 -0.83,0.37 -0.83,0.83l0,3.34c0,0.46 0.37,0.83 0.83,0.83l89.34,0z" fill-rule="evenodd" id="svg_14" stroke="#042433" stroke-miterlimit="8" stroke-width="2"/>
   <path d="m474.17,488c0.46,0 0.83,-0.37 0.83,-0.83l0,-3.34c0,-0.46 -0.37,-0.83 -0.83,-0.83l-89.34,0c-0.46,0 -0.83,0.37 -0.83,0.83l0,3.34c0,0.46 0.37,0.83 0.83,0.83l89.34,0z" fill-rule="evenodd" id="svg_15" stroke="#042433" stroke-miterlimit="8" stroke-width="2"/>
  </g>
 </g>
</svg>