<!DOCTYPE svg PUBLIC "-//W3C//DTD SVG 1.1//EN" "http://www.w3.org/Graphics/SVG/1.1/DTD/svg11.dtd">
<!-- Uploaded to: SVG Repo, www.svgrepo.com, Transformed by: SVG Repo Mixer Tools -->
<svg fill="#800000" height="800px" width="800px" version="1.1" id="Capa_1" xmlns="http://www.w3.org/2000/svg" xmlns:xlink="http://www.w3.org/1999/xlink" viewBox="0 0 792 792" xml:space="preserve" stroke="#800000">
<g id="SVGRepo_bgCarrier" stroke-width="0"/>
<g id="SVGRepo_tracerCarrier" stroke-linecap="round" stroke-linejoin="round"/>
<g id="SVGRepo_iconCarrier"> <g> <g> <path d="M698.293,101.061L600.95,3.717C597.878,0.645,595.025,0,593.172,0c-4.155,0-8.43,3.236-8.722,10.454l-10.268,85.244 l-75.188,75.188L484,155.893c-4.099-4.1-9.567-6.358-15.397-6.358c-5.704,0-11.054,2.175-15.124,6.11l-10.353-10.353 c-2.618-2.618-6.06-4.061-9.691-4.061c-4.378,0-8.53,2.051-11.49,5.652c-2.972,2.522-18.888,16.525-33.64,39.311 c-6.855,10.587-12.771,21.313-17.588,31.883l-2.866,6.289l6.784,1.313c2.806,0.542,5.266,1.071,7.523,1.617 c31.117,7.515,58.487,23.488,77.065,44.976c13.48,15.591,21.571,33.431,23.402,51.592l0.788,7.822l7.044-3.488 c8.401-4.159,16.933-9.034,25.359-14.49c22.789-14.756,36.792-30.673,39.312-33.642c3.307-2.724,5.344-6.535,5.618-10.551 c0.272-3.984-1.158-7.757-4.028-10.627l-10.355-10.355c8.227-8.51,8.154-22.118-0.248-30.52l-14.993-14.993l75.189-75.189 l85.242-10.268c6.956-0.277,9.232-4.105,9.89-5.754C702.096,110.172,703.093,105.859,698.293,101.061z M597.673,104.912 c-0.152-0.03-0.281-0.099-0.384-0.205c-0.099-0.101-0.162-0.225-0.192-0.37l10.767-64.769l54.578,54.578L597.673,104.912z"/> <path d="M573.705,305.884c-1.166-0.253-2.988-0.724-4.854-0.729c-0.658-0.247-1.671-0.124-2.812,0.45 c-0.885,0.33-1.701,0.868-2.369,1.705c-0.085,0.106-0.183,0.216-0.269,0.321c-7.817,7.78-20.123,18.756-36.333,29.25 c-9.404,6.087-18.943,11.538-28.359,16.2l-29.774,14.743c0,0-0.185,0.089-0.48,0.204c-2.348,0.719-5.591,0.493-6.207-5.798 c-0.614-6.266-2.273-22.636-2.892-28.722c-0.768-13.372-6.186-26.633-15.268-38.63c-0.001-0.001-0.002-0.002-0.002-0.003 c-0.545-0.722-1.107-1.437-1.679-2.148c-0.135-0.169-0.27-0.338-0.407-0.504c-0.579-0.711-1.167-1.419-1.772-2.119 c-0.013-0.015-0.025-0.031-0.038-0.046c-0.005-0.007-0.011-0.013-0.017-0.019c-0.977-1.13-1.987-2.245-3.029-3.347 c-0.107-0.113-0.217-0.223-0.324-0.335c-0.925-0.969-1.872-1.928-2.847-2.875c-0.258-0.25-0.525-0.498-0.786-0.747 c-0.764-0.726-1.54-1.447-2.332-2.158c-0.49-0.441-0.989-0.875-1.488-1.309c-0.536-0.465-1.079-0.925-1.628-1.383 c-0.763-0.638-1.537-1.268-2.321-1.89c-0.284-0.225-0.572-0.447-0.858-0.67c-1.044-0.812-2.103-1.611-3.181-2.394 c-0.047-0.034-0.094-0.068-0.14-0.101c-5.19-3.757-10.769-7.175-16.678-10.215c-0.26-0.134-0.524-0.265-0.786-0.397 c-1.183-0.6-2.377-1.187-3.585-1.755c-0.621-0.293-1.248-0.579-1.876-0.864c-0.851-0.385-1.706-0.765-2.568-1.136 c-0.98-0.421-1.966-0.836-2.964-1.239c-0.519-0.209-1.041-0.412-1.565-0.615c-1.194-0.466-2.396-0.922-3.612-1.36 c-0.334-0.12-0.671-0.234-1.006-0.352c-1.362-0.479-2.735-0.944-4.123-1.387c-0.195-0.062-0.391-0.12-0.586-0.182 c-1.52-0.478-3.053-0.936-4.603-1.37c-0.071-0.021-0.143-0.038-0.213-0.058c-1.651-0.458-3.316-0.894-5.001-1.301 c-0.097-0.023-0.194-0.045-0.291-0.068c-0.514-0.123-1.043-0.246-1.586-0.368c-2.307-0.526-4.61-0.996-6.904-1.407l-26.308-5.087 c0,0-5.916-2.072-3.26-7.161c3.279-6.282,11.752-25.79,11.752-25.79c0.194-0.426,0.39-0.851,0.588-1.277 c0.829-1.783-1.87-4.776-4.063-4.453c-42.523,6.249-78.643,20.41-102.081,39.223c-12.246-4.252-25.536-6.588-39.427-6.588 C139.469,237.627,90,282.573,90,338.016c0,44.872,32.406,82.863,77.112,95.721c37.564,15.423,121.56,23.071,219.2,23.742 c49.681,0.341,95.853-1.173,134.203-4.706c2.379,0.077,4.773,0.121,7.185,0.121c70.204,0,127.116-33.262,127.116-74.291 C654.814,346.432,622.415,316.454,573.705,305.884z"/> </g> </g> </g>
</svg>