<?xml version="1.0"?>
<svg width="512.002" height="512.002" xmlns="http://www.w3.org/2000/svg" xmlns:svg="http://www.w3.org/2000/svg" version="1.1" xml:space="preserve">

 <g class="layer">
  <title>Layer 1</title>
  <g id="SVGRepo_bgCarrier" stroke-width="0"/>
  <g id="SVGRepo_tracerCarrier" stroke-linecap="round" stroke-linejoin="round"/>
  <rect fill="#aad4ff" height="38" id="svg_10" stroke="null" stroke-dasharray="null" stroke-linecap="null" stroke-linejoin="null" stroke-opacity="null" stroke-width="null" width="517" x="-3" y="473"/>
  <rect fill="#aad4ff" height="261" id="svg_11" stroke="null" stroke-dasharray="null" stroke-linecap="null" stroke-linejoin="null" stroke-opacity="null" stroke-width="null" width="255" x="123.5" y="229"/>
  <g id="SVGRepo_iconCarrier">
   <g id="svg_1">
    <g id="svg_2">
     <path d="m502.8,457.71c-30.69,-15.42 -66.74,-14.48 -96.54,1.94l0,-86c42.52,-40.83 66.78,-97.47 66.78,-156.59c0,-119.68 -97.36,-217.04 -217.04,-217.04s-217.04,97.36 -217.04,217.04c0,59.12 24.26,115.76 66.78,156.59l0,85.99c-29.8,-16.41 -65.85,-17.35 -96.54,-1.93c-8.24,4.14 -11.56,14.17 -7.42,22.41c4.14,8.24 14.17,11.57 22.41,7.43c23.07,-11.59 50.65,-9.52 71.98,5.4c36.24,25.37 83.08,25.38 119.32,0.01c24.61,-17.23 56.41,-17.23 81.02,-0.01c18.13,12.69 38.89,19.03 59.67,19.03c20.76,0 41.53,-6.34 59.65,-19.02c21.33,-14.93 48.91,-17 71.98,-5.41c8.24,4.14 18.27,0.81 22.41,-7.43c4.14,-8.23 0.82,-18.27 -7.42,-22.41zm-129.93,18.76c-14.05,3.48 -28.83,2.52 -42.46,-2.91c5.38,-2.77 9.07,-8.37 9.07,-14.84l0,-74.71c0,-9.22 -7.48,-16.69 -16.7,-16.69s-16.69,7.48 -16.69,16.69l0,74.71c0,0.32 0.03,0.63 0.04,0.94c-10.61,-5.89 -21.91,-9.78 -33.43,-11.69l0,-30.56c0,-9.22 -7.48,-16.7 -16.7,-16.7c-9.22,0 -16.69,7.48 -16.69,16.7l0,30.56c-15.05,2.49 -29.72,8.36 -42.97,17.63c-17.21,12.05 -37.93,15.66 -57.26,10.86c0.02,-0.35 0.05,-0.69 0.05,-1.04l0,-241.67c18.99,0 14.5,0 33.39,0l0,50.09c0,9.22 7.48,16.7 16.7,16.7c9.22,0 16.69,-7.48 16.69,-16.7l0,-50.09l100.18,0l0,83.48c0,9.22 7.47,16.7 16.69,16.7s16.7,-7.48 16.7,-16.7l0,-83.48l33.39,0l0,242.72zm-232.55,-276.11c8.13,-56.56 56.91,-100.17 115.68,-100.17s107.54,43.61 115.67,100.17c-11.68,0 -219.84,0 -231.35,0zm115.68,-133.56c-82.85,0 -150.26,67.41 -150.26,150.26l0,105.53c-21.51,-30.66 -33.39,-67.48 -33.39,-105.53c0,-101.26 82.39,-183.65 183.65,-183.65s183.65,82.38 183.65,183.65c0,38.05 -11.88,74.87 -33.39,105.53l0,-105.53c0,-82.85 -67.41,-150.26 -150.26,-150.26z" id="svg_3"/>
    </g>
   </g>
   <g id="svg_4">
    <g id="svg_5">
     <path d="m189.22,333.93c-9.22,0 -16.7,7.47 -16.7,16.69l0,66.78c0,9.22 7.48,16.7 16.7,16.7s16.69,-7.48 16.69,-16.7l0,-66.78c0,-9.22 -7.47,-16.69 -16.69,-16.69z" id="svg_6"/>
    </g>
   </g>
   <g id="svg_7">
    <g id="svg_8">
     <path d="m256,267.15c-9.22,0 -16.69,7.47 -16.69,16.69l0,66.78c0,9.22 7.47,16.7 16.69,16.7c9.22,0 16.69,-7.48 16.69,-16.7l0,-66.78c0,-9.22 -7.47,-16.69 -16.69,-16.69z" id="svg_9"/>
    </g>
   </g>
  </g>
 </g>
</svg>